<?xml version="1.0" encoding="UTF-8" standalone="no"?>
<svg
   xmlns:dc="http://purl.org/dc/elements/1.1/"
   xmlns:cc="http://creativecommons.org/ns#"
   xmlns:rdf="http://www.w3.org/1999/02/22-rdf-syntax-ns#"
   xmlns:svg="http://www.w3.org/2000/svg"
   xmlns="http://www.w3.org/2000/svg"
   xmlns:sodipodi="http://sodipodi.sourceforge.net/DTD/sodipodi-0.dtd"
   xmlns:inkscape="http://www.inkscape.org/namespaces/inkscape"
   width="306.22775"
   height="309.2785"
   viewBox="0 0 81.022771 81.829945"
   version="1.1"
   id="svg8"
   inkscape:version="1.0 (4035a4fb49, 2020-05-01)"
   sodipodi:docname="dm-logo.svg">
  <defs
     id="defs2">
    <g
       id="g1657" />
    <clipPath
       id="f4b84fbbe3">
      <path
         id="path1659"
         clip-rule="nonzero"
         d="m 101,101.08594 h 173 v 172.5 H 101 Z m 0,0" />
    </clipPath>
    <clipPath
       id="0a3b7dc04a">
      <path
         id="path1662"
         clip-rule="nonzero"
         d="m 78.207031,192.57812 h 6.679688 v 6.67969 h -6.679688 z m 0,0" />
    </clipPath>
    <clipPath
       id="1ea1b35fab">
      <path
         id="path1665"
         clip-rule="nonzero"
         d="m 81.546875,192.57812 c -1.84375,0 -3.339844,1.4961 -3.339844,3.33985 0,1.84765 1.496094,3.33984 3.339844,3.33984 1.84375,0 3.339844,-1.49219 3.339844,-3.33984 0,-1.84375 -1.496094,-3.33985 -3.339844,-3.33985 z m 0,0" />
    </clipPath>
    <clipPath
       id="1072ed135c">
      <path
         id="path1668"
         clip-rule="nonzero"
         d="m 290.11328,192.57812 h 6.67969 v 6.67969 h -6.67969 z m 0,0" />
    </clipPath>
    <clipPath
       id="9a2c009a9d">
      <path
         id="path1671"
         clip-rule="nonzero"
         d="m 293.45312,192.57812 c -1.84375,0 -3.33984,1.4961 -3.33984,3.33985 0,1.84765 1.49609,3.33984 3.33984,3.33984 1.84375,0 3.33985,-1.49219 3.33985,-3.33984 0,-1.84375 -1.4961,-3.33985 -3.33985,-3.33985 z m 0,0" />
    </clipPath>
    <clipPath
       id="ae2d3378d1">
      <path
         id="path1674"
         clip-rule="nonzero"
         d="M 188.08984,151 H 299 V 264 H 188.08984 Z m 0,0" />
    </clipPath>
    <clipPath
       id="75e0b82593">
      <path
         id="path1677"
         clip-rule="nonzero"
         d="M 188.08984,146 H 200 v 24 h -11.91016 z m 0,0" />
    </clipPath>
    <clipPath
       id="c2497c8454">
      <path
         id="path1680"
         clip-rule="nonzero"
         d="M 188.08984,101.08594 H 274 v 172.5 h -85.91016 z m 0,0" />
    </clipPath>
  </defs>
  <sodipodi:namedview
     id="base"
     pagecolor="#000000"
     bordercolor="#666666"
     borderopacity="1.0"
     inkscape:pageopacity="0.2"
     inkscape:pageshadow="2"
     inkscape:zoom="1.979899"
     inkscape:cx="39.195504"
     inkscape:cy="133.46576"
     inkscape:document-units="px"
     inkscape:current-layer="layer1"
     inkscape:document-rotation="0"
     showgrid="false"
     inkscape:pagecheckerboard="false"
     fit-margin-top="0"
     fit-margin-left="0"
     fit-margin-right="0"
     fit-margin-bottom="0"
     units="px"
     inkscape:window-width="1920"
     inkscape:window-height="1057"
     inkscape:window-x="-8"
     inkscape:window-y="1072"
     inkscape:window-maximized="1" />
  <metadata
     id="metadata5">
    <rdf:RDF>
      <cc:Work
         rdf:about="">
        <dc:format>image/svg+xml</dc:format>
        <dc:type
           rdf:resource="http://purl.org/dc/dcmitype/StillImage" />
        <dc:title></dc:title>
      </cc:Work>
    </rdf:RDF>
  </metadata>
  <g
     inkscape:label="Layer 1"
     inkscape:groupmode="layer"
     id="layer1">
    <g
       id="g1966"
       transform="matrix(0.35277778,0,0,0.35277778,-25.738283,-24.929017)">
      <path
         id="path1685"
         fill-rule="evenodd"
         fill-opacity="1"
         d="m 187.5,183.95703 2.05859,6.35156 h 6.67578 l -5.40234,3.92578 2.06641,6.34766 -5.39844,-3.92578 -5.40234,3.92578 2.0625,-6.34766 -5.40235,-3.92578 h 6.67969 m 2.02344,71.6836 c -1.61719,3.34375 -4.52735,1.53515 -5.70313,-1.05469 -0.69531,-1.53125 -2.0664,-2.70703 -3.57031,-3.5625 -1.23828,-0.70313 -2.75,-1.41016 -2.61328,-2.70703 -0.20703,-4.17578 1.66015,-6.83594 -0.875,-10.26563 -3.89844,-5.26562 -0.92578,-9.86718 -4.125,-15.82422 -0.66406,-1.23828 -5.25,-5.6289 -6.375,-6.80859 -4.04688,-4.21094 -0.50781,-8.69531 0.48828,-10.98437 0.76172,-1.7461 1.39453,-0.41797 1.19141,1.16406 -0.20313,1.57422 0.65234,4.80469 1.96875,6.38672 2.64843,3.1875 11.13671,9.14062 6.39843,-1.125 -2.375,-5.16016 -8.52343,-8.22657 -12.40234,-10.57422 -2.72266,-1.65235 -3.85156,-4.75781 -2.42969,-6.15235 2.81641,-2.77734 4.19531,-5.44531 -6.47265,-7.875 -7.64844,-1.74609 -13.6836,-2.58984 -18.58594,-3.92968 -19.40625,-5.32813 -32.21875,-31.38282 -56.226564,-36.67578 -2.308594,-0.42188 -1.363281,-0.71094 -0.238281,-0.77344 21.496094,-1.19922 39.207035,17.73437 54.058595,21.50781 6.87109,1.74609 8.62109,1.91797 15.33984,2.42578 11.75,0.8711 21.33594,-3.6289 33.37891,-0.83594 2.79687,0.64844 5.40625,1.25391 6.79297,1.35938 1.38672,-0.10547 4.0664,-0.71094 6.86328,-1.35938 12.04297,-2.79296 21.6289,1.70704 33.3789,0.83594 6.71875,-0.50781 8.46875,-0.67969 15.33985,-2.42578 14.85547,-3.77344 32.5625,-22.70703 54.05859,-21.50781 1.125,0.0625 2.07031,0.35156 -0.23828,0.77344 -24.00781,5.28906 -36.82031,31.34765 -56.22656,36.67578 -4.90235,1.33984 -10.9375,2.18359 -18.58594,3.92968 -10.66797,2.42969 -9.28906,5.09766 -6.47266,7.875 1.42188,1.39454 0.29297,4.5 -2.42968,6.15235 -3.875,2.34765 -10.02735,5.41406 -12.40235,10.57422 -4.73828,10.26562 3.75,4.3125 6.39844,1.125 1.31641,-1.58203 2.17188,-4.8125 1.96875,-6.38672 -0.20312,-1.58203 0.43359,-2.91016 1.19141,-1.16406 0.99609,2.28906 4.53515,6.77343 0.48828,10.98437 -1.125,1.17969 -5.71094,5.57031 -6.375,6.80859 -3.19922,5.95704 -0.22656,10.5586 -4.125,15.82422 -2.53516,3.42969 -0.66797,6.08985 -0.875,10.26563 0.13672,1.30078 -1.375,2.0039 -2.61328,2.70703 -1.50391,0.85547 -2.875,2.03125 -3.57032,3.5625 -1.17187,2.58984 -4.15234,4.39844 -5.77343,1.05469 z m 0,0"
         fill="#ffffff" />
      <path
         id="path1687"
         fill-rule="evenodd"
         fill-opacity="1"
         d="m 192.62891,169.50391 c -1.5625,0 -2.84766,-0.35157 -3.52735,-1.16797 -0.5664,-0.67969 -0.52734,-1.52344 -0.86719,-2.44141 -0.34375,-0.92187 -1.0625,-0.95312 -1.77343,-2.62891 -0.32032,-0.76171 -0.55078,-1.72265 -1.51563,-2.20312 -0.48047,0 -0.96094,0 -1.44531,0 -0.62109,0 -0.76172,0.58594 -0.96484,0.99609 -0.13672,0.27735 -0.51954,0.79297 -0.82813,0.79297 -0.44531,0 -1.75391,-0.99609 -2.10156,-1.34375 -0.6875,-0.6875 -0.37891,-1.375 -0.72266,-2.0664 -0.51953,-1.03125 -3.23828,-2.10157 -3.23828,-3.23829 h 6.54688 v -9.78515 h 5.30468 v 4.20703 c 0.92969,-0.004 1.92969,1.03125 2.9961,1.03125 1.3125,0 2.75781,1.27344 4.20703,0.30859 0.96094,-0.65625 2.41015,0.79297 3.61328,0.79297 v 3.41016 c 0.29297,0.28906 0.79687,0.86328 0.98828,1.64844 0.14844,0.60546 -0.0781,1.07812 -0.26172,1.45312 -0.25781,0.52734 0.3125,1.33984 -1.96484,2.71875 -1.29688,0.78906 -3.14063,1.44531 -3.96094,2.82813 -0.59375,0.99609 -0.76172,1.17187 -0.76172,2.33984 0,0.83203 0.31641,1.55469 0.27735,2.34766"
         fill="#ffffff" />
      <g
         id="g1691"
         clip-path="url(#f4b84fbbe3)">
        <path
           id="path1689"
           fill-rule="evenodd"
           fill-opacity="1"
           d="m 255.46875,240.51562 c -0.90234,0.85547 -0.0937,0.66797 -1.27734,0.23047 1.20312,-1.03906 0.19921,-0.65625 1.27734,-0.23047 M 146.25,116.26172 c -0.80859,0.59375 -0.46094,0.58203 -1.78906,-0.125 1.73437,-1.46484 1.07031,-0.39063 1.78906,0.125 z m -30.84375,27.24219 -1.78125,0.9414 c -0.0117,-1.28125 0.49219,-1.86719 1.78125,-0.9414 z m -10.89062,45.51953 c -1.59375,0.47265 -0.74219,-0.13672 -0.89844,0.88672 z m -2.10157,1.17968 c 0.33203,1.83204 -0.16406,0.8711 0.8711,0.94141 z m 5.71485,-35.5664 c 0.83593,-1.83594 1.72265,-2.92969 3.96875,-7.57813 1.21484,-2.5039 4.4414,-2.95703 5.41015,-3.6289 -1.10156,-0.36328 0.41016,0.16406 -0.76562,-0.10547 -0.92969,-0.21094 -0.38281,-0.0312 -1.0586,-0.39453 l 1.07813,-1.11328 -1.60938,-0.19141 c 0.78907,-1.35547 0.78516,-1.62891 1.73829,-2.83984 1.97656,-2.5 4.08593,-5.81641 6.33203,-8.26172 2.89062,-3.14453 6.42968,-7.59375 10.1875,-9.51953 0.91015,1.24609 0.0977,0.14843 0.4414,1.13281 l 1.53125,-1.19141 c -1.4414,-0.26953 0.0781,0.24219 -1.26562,-0.0312 1.6289,-3.14453 4.0664,-3.1875 7.90234,-3.67578 1.88281,-0.23437 0.61328,-1.23437 2.24609,-0.24609 -0.27343,0.58984 -12.80468,9.72265 -16.73437,14.76172 -2.07812,2.66796 -3.16797,2.72265 -6.84375,8.25781 -1.01953,1.52734 -2.42578,3.03906 -3.05859,4.55859 -0.72657,1.73828 -1.76563,3.5 -3.57813,4.16406 l 0.84766,0.7461 c -1.10547,1.85937 -1.96094,3.84375 -2.96875,5.57031 l -0.50391,1.48828 z m 15.7539,84.85547 c 0.12891,2.74609 1.24219,-0.64844 1.375,4.05468 l 2.28516,-0.43359 -0.39063,2.13281 c 1.1875,-1.09375 0.34375,-0.48828 1.33203,-0.68359 1.06641,2.29687 3.15625,3.05078 4.8711,4.94922 l -0.92578,1.11719 c 4.67187,-0.22657 6.10937,3.14453 9.52343,5.55859 3.1875,2.25391 7.06641,3.66016 9.82422,5.60547 l -2.18359,0.94922 c 1.46094,0.0976 2.5,-0.44532 3.75,-0.17188 1.02734,0.22656 1.19531,0.75 2.75781,1.09375 1.90235,0.42188 4.26563,0.60156 5.53906,2.16016 -1.01953,0.92578 -0.28125,0.57422 -1.875,0.44922 l 2.85157,2.70312 c -0.53516,0.63672 -0.51953,0.44141 -1.21485,0.57031 l 0.20313,-0.7539 c -2.06641,-0.26172 -0.72656,0.62109 -2.62891,-0.10938 -1.99609,-0.76562 -3.13281,-0.71875 -5.05859,-1.87109 -1.60547,-0.96094 -0.94141,-0.39844 -2.47656,-0.98828 -0.96485,-0.3711 -1.51172,-0.98438 -2.125,-1.41016 -0.85157,-0.59375 -0.46875,0.20703 -2.03907,-0.66797 -5.85937,-3.28125 -7.96484,-5.05078 -12.98047,-8.67968 -1.44531,-1.03907 -2.72265,-2.14844 -4.00781,-3.34766 -2.1875,-2.03125 -1.32422,-2.16797 -4.08203,-3.25781 l -0.46484,-1.99219 1.17578,-0.35156 -0.98438,-1.3711 c -1.64453,1.29297 -0.0977,0.85938 -2.10546,1.13282 l -1.44532,-2.25391 1.57032,0.26172 c -0.12891,-0.42578 -1.16407,-2.09766 -1.39844,-2.48047 -0.90235,0.75 -0.58203,0.28125 -0.69141,1.29687 l -1.22265,-1.08984 c 0.5625,-1.75781 1.33984,-1 0.57031,-2.71875 -1.32031,0.51563 0.29297,0.74609 -1.60938,0.59766 1.32813,1.25781 0.95313,0.45703 0.60157,1.46093 -1.1875,-1.20312 -0.84766,-1.17187 -0.90625,-2.6914 -3.57032,-1.26172 -2.92969,-2.85938 -6.21094,-7.86328 -8.32813,-12.69922 -2.97266,-5.73828 -6.44141,-14.53516 -1.02734,-2.60156 -3.58984,-8.45312 -3.42187,-11 0.11718,-1.86719 -0.71094,-3.75 -0.90625,-5.88281 l 1.42968,-1.03906 c -1.14453,-1.23047 -0.23046,-0.42969 -1.71875,-0.87891 0.16797,-1.62109 -0.24609,-1.17188 0.56641,-2.47266 -1.44922,-0.95312 -0.97266,-2.85937 -1,-7.00781 -0.0859,-10.74219 0.63672,-6.85547 1.36328,-14.74219 l 3.29688,3.05078 c -0.10547,0.65625 -0.25391,1.51563 -0.42578,2.67969 -0.89063,6.09766 -0.24219,10.66406 -0.25782,15.98828 -0.0117,2.15235 -0.34375,1.00391 -1.14843,2.75391 L 105.5,196.79297 c -0.25781,3.10547 -0.16016,-0.19141 0.65234,3.03515 0.39063,1.54297 0.62891,3.30469 0.83204,4.85547 -0.79688,1.29688 -0.48047,0.12891 0.23828,1.65625 0.17578,0.3711 0.875,2.26953 0.98437,2.71094 0.54688,2.19141 0.58985,3.44531 1.82031,5.51563 l -0.84765,1.14843 c 1.88281,0.5625 2.57031,3.55469 3.13281,5.2461 0.37109,1.09765 2.05469,4.07031 2.83203,5.46093 0.47656,0.85938 0.92578,2.27344 1.12891,2.64454 0.1875,0.32812 1.33984,1.28515 1.89453,2.11328 0.86328,1.30078 0.87109,2.19922 1.375,3.08984 0.30859,0.53516 1.30078,1.33594 1.92578,2.31641 l -1.85547,1.08984 c 1.71875,1.71484 1.38281,0.11719 2.37891,0.94922 1.65234,1.37891 1.02344,1.34766 0.86328,2.12109 z m 139.63281,-82.92188 c -3.63281,-10.0625 -5.23437,-10.80469 -12.86718,-22.14062 -1.4336,-2.125 -6.41407,-3.84766 -5.98828,-6.8125 -3.77735,-0.42969 -1.82813,-1.83203 -4.37891,-3.02344 l -9.90625,-7.08203 c -1.41016,-0.86719 -1.17578,-1.23828 -1.75781,-1.60938 -0.46094,-0.29296 -1.95703,-0.53125 -2.8086,-0.90625 -3.2539,-1.41796 -7.54687,-4.21093 -10.92968,-5.01953 -1.8086,-0.42968 -10.96094,-2.55859 -11.65235,-3.48437 2.41406,0.043 1.13672,0.40625 4.04297,-0.24219 l -0.53125,-1.35156 c -0.94531,1.70703 -0.82422,0.83984 -2.75781,0.42969 -3.19141,2.53515 -13.95313,-1.16797 -23.11328,0.47265 -2.4336,0.4336 -6.01563,1.53516 -7.99219,0.28125 -0.76172,1.40235 -2.20703,1.15235 -4.16016,1.50391 -1.96484,0.35156 -2.49218,0.86328 -4.32812,1.21875 -6.0586,1.16797 -7.67188,4.15234 -10,2.14453 -0.16797,0.83594 -0.42578,-0.375 0.14844,1.21484 l -3.71485,1.98828 c -1.40625,1.02735 -3.125,0.6836 -4.58594,-0.0703 -2.32421,2.0586 -0.92187,0.42188 -3.2539,1.29297 -1.80469,0.67578 -1.86719,1.76172 -3.26172,1.09766 l 2.83203,-2.07032 c 0.98828,-0.6875 2.04297,-1.14453 3.07031,-1.74218 5.51172,-3.22266 15.71875,-7.60547 21.55469,-8.95313 10.09766,-2.33594 22.18359,-2.60937 32.45313,-1.13281 3.12109,0.44531 7.80078,0.80469 10.40234,2.22656 1.25391,0.6875 1.90234,0.39063 3.32422,0.78125 1.72265,0.47656 4.70703,1.69141 6.41797,2.40625 1.00781,0.42188 4.57031,2.61328 4.64453,2.6211 3.71875,0.57421 13.53125,6.95703 16.875,9.93359 1.85937,1.65234 3.48047,2.03516 3.51172,4.21875 6.78906,2.96484 12.96484,13.1875 16.96875,19.48047 1.91015,3.00781 3.65234,6.57812 5.17578,10.34375 z m -44.5039,109.13672 c 1.16406,0.89844 0.79687,-0.51172 1.58594,0.97656 -1.24219,2.57813 -11.3086,4.00782 -14.36719,5.06641 -3.00391,1.03516 -5.63281,0.67578 -8.39844,1.18359 -5.4375,1 -17.41406,0.96485 -22.42187,-0.12109 -0.66797,-0.14844 -1.48438,-0.55859 -1.54688,-0.57422 -0.96484,-0.21875 -6.39844,-0.4375 -10.70312,-2.17969 l 1.39062,-1.60937 c -1.70703,-0.53516 -2.17578,0.2539 -2.75391,-1.84766 3.23438,0.26563 3.39844,-0.1289 6.60547,1.1211 l 9.6875,1.73828 c 5.48438,-0.45703 4.51172,0.5 10.22657,0.46875 7.52734,-0.0391 15.71484,-1.11719 22.57421,-3.38282 7.39454,-2.45312 3.72657,-0.83984 6.36329,-0.68359 0.46875,-0.82031 0.0195,-0.72266 -0.38672,-0.99219 7.63281,-3.58203 8.88672,-4.32812 15.92187,-8.6289 l 1.00391,0.75 c 0.3125,-2.40625 1.80078,-1.88282 3.71094,-3.97657 l 6.65234,-5.58203 c 1.54297,-1.0664 0.94531,-1.1875 1.79297,-1.9375 2.64844,-2.33984 2.01172,-0.52734 3.70703,-1.22656 l -0.76953,-1.69531 c 0.67578,-0.85547 1.93359,-2.10938 2.67578,-2.98438 1.18359,-1.39843 1.52344,-2.625 2.92187,-4.32422 0.84375,-1.02343 0.95313,-1.03515 1.83594,-1.88671 0.90235,-0.875 0.16016,-0.69141 0.71875,-1.92969 0.89063,-1.99219 1.88672,-2.58203 3.8125,-3.22656 l -1.15234,-0.8711 c 0.40625,-1.0625 1.36719,-2.92578 1.91797,-4.01562 1.15234,-2.28907 -0.0586,-1.91797 2.26172,-3.1836 -0.74219,-1.51953 0.68359,-3.57812 1.3125,-5.23047 1.30468,-3.42968 3.32421,-12.21484 3.79687,-15.64843 1.14844,-8.28125 1.22656,-15.84375 -0.043,-23.57422 l 3.29688,-3.05078 c 0.004,0.0234 0.0117,0.043 0.0117,0.0625 1.80468,9.95703 1.38281,19.53515 0,29.53125 -1.60157,11.55859 -3.66797,12.51562 -5.70704,18.88672 -0.92578,2.89453 -0.64062,3.42187 -3.02343,5.32421 0.1289,3.41016 -4.71094,9.03516 -6.13282,9.87891 l 0.45313,1.19141 c -1.19141,1.1914 -1.01563,1.21093 -2.71484,1.09375 -1.5,2.33984 -0.32032,0.35156 -2.05079,1.36328 0.82032,1.42187 1.23047,0.76953 1.03125,2.1875 -0.83593,0.39062 -0.34375,-0.008 -1.36718,-0.625 -2.82422,0.76562 -1.48438,1.2539 -1.25391,3.57031 l -3.91406,4.31641 c -2.78125,2.01172 -4.98047,6.40234 -9.10938,6.41406 -0.88281,3.18359 -2.84375,2.77344 -5.23437,4.40234 -1.95313,1.32813 -4.04297,3.53125 -6.54688,3.13282 l -2.46484,2.10937 -2.38281,-1.80469 c -1.0586,0.65235 -0.6211,0.26953 -1.10938,1.53516 -1.19531,-0.25391 -1.17578,-0.64063 -1.71484,0.48828 z m -9.14453,-160.16406 c -0.0273,-0.84375 -0.42969,-0.66016 -0.65625,0.0859 -0.31641,1.02343 0.66015,0.0508 0.65625,-0.0859 z m -3.14453,0.98437 -0.0977,0.14063 c -0.0117,-0.0547 0.14844,-0.10938 0.0977,-0.14063 z m 14.29687,3.23047 c -0.0234,0.008 -0.11328,0.0664 -0.13672,0.0781 l -1.72265,0.97656 c 3.70312,-0.57422 0.25781,0.75781 2.55468,-0.21484 0.16407,-1.03125 0.32813,-0.31641 -0.30859,-0.91407 -1.19531,-0.17968 0.66406,-0.35937 -0.38672,0.0742 z m 23.31641,14.44532 -1.84766,0.76953 z m 13.125,111.40234 -2.33594,0.50781 0.625,0.9375 z m -3.75,3.6914 -0.14453,-0.10156 c -0.0312,0.0508 0.13281,0.0898 0.14453,0.10156 z m -1.27735,0.51954 c 0.0469,0.0312 0.0937,-0.13282 0.0977,-0.14063 z m -0.73047,0.54687 c -0.0469,-0.0312 -0.0937,0.13281 -0.0977,0.14063 z m -0.47656,4.24219 c 0.0547,-0.0859 -0.23047,-0.5586 -0.66797,-0.46485 -0.61328,0.12891 0.61719,0.53125 0.66797,0.46485 z m -3.52734,1.53906 c -0.90625,0.46875 -0.4375,-0.53906 -0.80078,1.31641 z m -14.82813,11.74219 c -0.1289,-0.73047 -0.53906,-0.76563 -0.61718,0.11328 -0.082,0.91797 0.70312,0.36719 0.61718,-0.11328 z m -5.72265,3.18359 c -0.82032,0.47266 -0.80469,-0.61328 -0.35547,1.24219 z m -2.67578,3.35547 c 1.375,-0.94141 0.043,-0.84766 1.76953,-1.45703 l -1.09766,-1.12109 c -0.45312,0.45703 -0.625,0.88671 -1.08984,1.16015 -1.08985,0.64844 -0.28907,0.0977 -0.80078,0.26172 -1.26172,0.39844 0.46484,-0.48047 -0.67188,0.25781 z m -5.51172,1.86328 c -1.80078,0.39453 -0.83594,-0.0351 -0.90625,0.88672 z m 0.99609,0.51953 c 0.95703,-0.1914 0.004,-0.17968 0.004,-0.17968 -0.0469,-0.23047 -0.69922,0.3125 -0.004,0.17968 z m 0,0"
           fill="#ffffff" />
      </g>
      <g
         id="g1697"
         clip-path="url(#0a3b7dc04a)">
        <g
           id="g1695"
           clip-path="url(#1ea1b35fab)">
          <path
             id="path1693"
             fill-rule="nonzero"
             fill-opacity="1"
             d="m 78.207031,192.57812 h 6.679688 v 6.67969 h -6.679688 z m 0,0"
             fill="#ffffff" />
        </g>
      </g>
      <g
         id="g1703"
         clip-path="url(#1072ed135c)">
        <g
           id="g1701"
           clip-path="url(#9a2c009a9d)">
          <path
             id="path1699"
             fill-rule="nonzero"
             fill-opacity="1"
             d="m 290.11328,192.57812 h 6.67969 v 6.67969 h -6.67969 z m 0,0"
             fill="#ffffff" />
        </g>
      </g>
      <g
         id="g1711"
         fill-opacity="1"
         fill="#ffffff">
        <g
           id="g1709"
           transform="translate(101.66736,259.00037)">
          <g
             id="g1707">
            <path
               id="path1705"
               d="m 6.109375,6.015625 1.171875,-1 c 0.445312,0.375 0.785156,0.632813 1.015625,0.78125 C 8.535156,5.953125 8.726562,6.023438 8.875,6.015625 9.03125,6.003906 9.191406,5.914062 9.359375,5.75 9.492188,5.613281 9.671875,5.367188 9.890625,5.015625 L 10.90625,3.234375 C 10.289062,2.566406 9.738281,1.988281 9.25,1.5 9.03125,1.28125 8.535156,0.859375 7.765625,0.234375 l -0.421875,-0.34375 -1.875,0.96875 C 5.144531,1.054688 4.929688,1.210938 4.828125,1.328125 4.597656,1.546875 4.503906,1.757812 4.546875,1.96875 4.585938,2.1875 4.769531,2.453125 5.09375,2.765625 l 0.796875,0.78125 -0.046875,0.21875 -1.234375,1 C 4.453125,4.585938 4.101562,4.203125 3.5625,3.609375 3.03125,3.023438 2.519531,2.488281 2.03125,2 1.507812,1.488281 1.035156,1.035156 0.609375,0.640625 0.191406,0.242188 -0.09375,-0.0078125 -0.25,-0.125 l 1.3125,-1.078125 c 0.332031,0.230469 0.679688,0.34375 1.046875,0.34375 0.375,0 0.847656,-0.132813 1.421875,-0.40625 l 12.515625,-6.078125 3.109375,2.484375 0.109375,0.28125 C 18.765625,-3.691406 17.738281,-1.875 16.1875,0.875 14.632812,3.625 13.410156,5.859375 12.515625,7.578125 12.222656,8.148438 12.09375,8.632812 12.125,9.03125 c 0.03125,0.394531 0.234375,0.816406 0.609375,1.265625 L 12.6875,10.5 11.484375,11.453125 C 11.347656,11.265625 11.0625,10.945312 10.625,10.5 10.195312,10.0625 9.753906,9.617188 9.296875,9.171875 8.648438,8.523438 7.992188,7.914062 7.328125,7.34375 6.660156,6.78125 6.238281,6.414062 6.0625,6.25 Z m 4.53125,-5.9375 C 10.773438,0.210938 11.25,0.648438 12.0625,1.390625 l 2.96875,-5.203125 -0.25,-0.25 -5.46875,2.84375 z m 0,0" />
          </g>
        </g>
      </g>
      <g
         id="g1719"
         fill-opacity="1"
         fill="#ffffff">
        <g
           id="g1717"
           transform="translate(118.4774,274.35638)">
          <g
             id="g1715">
            <path
               id="path1713"
               d="m -1.046875,2.390625 c 0.40625,-0.3125 1.3125,-1.039063 2.71875,-2.171875 1.414063,-1.132812 2.769531,-2.253906 4.0625,-3.359375 l 9.109375,-7.796875 1.671875,1.171875 0.03125,0.5 c -0.65625,0.542969 -1.882813,1.554687 -3.671875,3.03125 -1.792969,1.480469 -3.632812,3.015625 -5.515625,4.609375 -1.625,1.375 -3.042969,2.570312 -4.25,3.59375 -1.210937,1.019531 -2,1.695312 -2.375,2.03125 L -1.03125,2.765625 Z m 0,0" />
          </g>
        </g>
      </g>
      <g
         id="g1727"
         fill-opacity="1"
         fill="#ffffff">
        <g
           id="g1725"
           transform="translate(130.99158,282.85545)">
          <g
             id="g1723">
            <path
               id="path1721"
               d="M 7.484375,3.9375 C 6.066406,3.257812 4.976562,2.367188 4.21875,1.265625 3.457031,0.171875 3.0625,-1.054688 3.03125,-2.421875 3,-3.796875 3.34375,-5.238281 4.0625,-6.75 c 0.789062,-1.644531 1.816406,-2.921875 3.078125,-3.828125 1.269531,-0.914063 2.679687,-1.414063 4.234375,-1.5 1.5625,-0.08203 3.160156,0.273437 4.796875,1.0625 0.582031,0.273437 1.179687,0.609375 1.796875,1.015625 0.625,0.398438 1.144531,0.757812 1.5625,1.078125 0.425781,0.3125 0.691406,0.515625 0.796875,0.609375 v 0.359375 c -0.07422,0.09375 -0.246094,0.320313 -0.515625,0.671875 -0.273438,0.355469 -0.609375,0.839844 -1.015625,1.453125 -0.398437,0.605469 -0.792969,1.261719 -1.1875,1.96875 L 15.3125,-4.78125 c 0.01953,-0.0625 0.09375,-0.203125 0.21875,-0.421875 0.125,-0.21875 0.257812,-0.476563 0.40625,-0.78125 0.332031,-0.675781 0.363281,-1.273437 0.09375,-1.796875 -0.261719,-0.519531 -0.84375,-1 -1.75,-1.4375 C 13.050781,-9.8125 11.898438,-9.820312 10.828125,-9.25 9.753906,-8.6875 8.8125,-7.554688 8,-5.859375 c -0.917969,1.917969 -1.28125,3.574219 -1.09375,4.96875 0.195312,1.382813 0.914062,2.375 2.15625,2.96875 0.851562,0.40625 1.644531,0.460937 2.375,0.171875 0.738281,-0.28125 1.472656,-0.949219 2.203125,-2 L 15.9375,1.1875 c -0.167969,0.238281 -0.527344,0.78125 -1.078125,1.625 -0.542969,0.851562 -1.027344,1.675781 -1.453125,2.46875 l -0.359375,0.1875 c -0.01172,0 -0.320313,-0.042969 -0.921875,-0.125 C 11.53125,5.257812 10.820312,5.101562 10,4.875 9.175781,4.65625 8.335938,4.34375 7.484375,3.9375 Z m 0,0" />
          </g>
        </g>
      </g>
      <g
         id="g1733"
         fill-opacity="1"
         fill="#ffffff">
        <g
           id="g1731"
           transform="translate(151.5191,291.72016)">
          <g
             id="g1729" />
        </g>
      </g>
      <g
         id="g1741"
         fill-opacity="1"
         fill="#ffffff">
        <g
           id="g1739"
           transform="translate(162.08066,295.04299)">
          <g
             id="g1737">
            <path
               id="path1735"
               d="M 14.84375,3.234375 C 14.476562,2.878906 13.535156,1.800781 12.015625,0 c -1.71875,1.113281 -3.480469,1.539062 -5.28125,1.28125 -1.75,-0.25 -3.085937,-0.84375 -4,-1.78125 -0.90625,-0.9375 -1.261719,-2.09375 -1.0625,-3.46875 0.132813,-0.90625 0.484375,-1.632812 1.046875,-2.1875 0.5625,-0.5625 1.160156,-0.972656 1.796875,-1.234375 0.644531,-0.269531 0.96875,-0.382813 0.96875,-0.34375 l 0.03125,-0.21875 C 4.921875,-8.804688 4.5,-9.5625 4.25,-10.21875 c -0.242188,-0.65625 -0.3125,-1.320312 -0.21875,-2 0.125,-0.8125 0.46875,-1.507812 1.03125,-2.09375 0.5625,-0.582031 1.300781,-0.984375 2.21875,-1.203125 0.925781,-0.226563 1.960938,-0.265625 3.109375,-0.109375 0.707031,0.105469 1.3125,0.25 1.8125,0.4375 0.507813,0.1875 1.035156,0.414062 1.578125,0.671875 l 0.01563,0.421875 -1.59375,2.171875 -0.421875,-0.0625 c -0.429688,-0.519531 -0.828125,-0.894531 -1.203125,-1.125 -0.375,-0.238281 -0.8125,-0.394531 -1.3125,-0.46875 -0.636719,-0.09375 -1.148437,-0.0078 -1.53125,0.25 -0.386719,0.261719 -0.621094,0.667969 -0.703125,1.21875 -0.09375,0.710937 0.015625,1.390625 0.328125,2.046875 0.3125,0.65625 0.941406,1.515625 1.890625,2.578125 L 13.0625,-3.125 c 0.320312,-0.539062 0.535156,-1.171875 0.640625,-1.890625 0.125,-0.84375 0.09375,-1.472656 -0.09375,-1.890625 -0.1875,-0.425781 -0.539063,-0.675781 -1.046875,-0.75 -0.242188,-0.03125 -0.574219,-0.035156 -1,-0.015625 -0.429688,0.011719 -0.6875,0.00781 -0.78125,-0.015625 l -0.125,-1.796875 c 0.0078,-0.03125 0.179688,-0.070313 0.515625,-0.125 0.34375,-0.0625 0.726563,-0.070313 1.15625,-0.03125 L 17.625,-9.1875 c 1.394531,0.117188 2.109375,0.121094 2.140625,0.015625 l 0.28125,0.640625 -0.625,1.203125 c -0.15625,0.230469 -0.375,0.386719 -0.65625,0.46875 C 18.492188,-6.785156 18.082031,-6.789062 17.53125,-6.875 L 15.546875,-7.15625 15.40625,-7 c 0.175781,0.28125 0.289062,0.605469 0.34375,0.96875 0.05078,0.367188 0.05078,0.726562 0,1.078125 -0.15625,1.105469 -0.664062,2.152344 -1.515625,3.140625 l 3.109375,3.46875 -0.0625,0.421875 c -0.28125,0.175781 -0.679688,0.382813 -1.1875,0.625 -0.5,0.25 -0.917969,0.425781 -1.25,0.53125 z M 7.875,-0.75 c 1.0625,0.15625 2.09375,-0.019531 3.09375,-0.53125 L 6.484375,-6.609375 c -0.492187,0.273437 -0.90625,0.617187 -1.25,1.03125 -0.335937,0.40625 -0.539063,0.867187 -0.609375,1.375 -0.136719,0.9375 0.078125,1.710937 0.640625,2.3125 0.5625,0.59375 1.429687,0.976563 2.609375,1.140625 z m 0,0" />
          </g>
        </g>
      </g>
      <g
         id="g1747"
         fill-opacity="1"
         fill="#ffffff">
        <g
           id="g1745"
           transform="translate(187.05668,297.5516)">
          <g
             id="g1743" />
        </g>
      </g>
      <g
         id="g1755"
         fill-opacity="1"
         fill="#ffffff">
        <g
           id="g1753"
           transform="translate(198.16333,297.44587)">
          <g
             id="g1751">
            <path
               id="path1749"
               d="M 0.921875,-1.609375 C 1.640625,-1.867188 2.09375,-2.164062 2.28125,-2.5 2.476562,-2.84375 2.507812,-3.367188 2.375,-4.078125 l -1.765625,-9.875 c -0.09375,-0.53125 -0.21875,-0.867187 -0.375,-1.015625 -0.15625,-0.15625 -0.414063,-0.203125 -0.78125,-0.140625 l -0.765625,0.15625 -0.15625,-0.1875 -0.078125,-1.5 3.015625,-0.515625 C 2.125,-17.269531 3.382812,-17.554688 5.25,-18.015625 l 0.140625,1.6875 c -0.4375,0.15625 -0.746094,0.3125 -0.921875,0.46875 -0.167969,0.148437 -0.273438,0.335937 -0.3125,0.5625 -0.03125,0.230469 -0.027344,0.59375 0.015625,1.09375 l 0.53125,3.71875 3.34375,-0.5625 c 0.882813,-0.15625 1.882813,-0.394531 3,-0.71875 L 10.34375,-15.6875 C 10.25,-16.21875 10.125,-16.5625 9.96875,-16.71875 9.820312,-16.875 9.5625,-16.921875 9.1875,-16.859375 L 8.40625,-16.703125 8.25,-16.875 8.1875,-18.390625 11.390625,-18.9375 c 0.5625,-0.09375 1.785156,-0.375 3.671875,-0.84375 l 0.171875,1.671875 c -0.617187,0.199219 -1.007813,0.40625 -1.171875,0.625 -0.167969,0.21875 -0.226562,0.578125 -0.171875,1.078125 0.1875,1.5 0.425781,3.230469 0.71875,5.1875 0.289063,1.949219 0.550781,3.578125 0.78125,4.890625 0.125,0.699219 0.28125,1.167969 0.46875,1.40625 0.1875,0.230469 0.488281,0.308594 0.90625,0.234375 0.175781,-0.03125 0.492187,-0.113281 0.953125,-0.25 l 0.140625,0.171875 0.0625,1.625 C 17.679688,-3.097656 17.5,-3.070312 17.375,-3.0625 c -1.304688,0.199219 -2.355469,0.371094 -3.15625,0.515625 l -3.5,0.671875 -0.07813,-1.65625 c 0.488281,-0.101562 0.847656,-0.25 1.078125,-0.4375 0.238281,-0.1875 0.378906,-0.453125 0.421875,-0.796875 0.03906,-0.351563 0.0078,-0.84375 -0.09375,-1.46875 L 11.45312,-9.53125 8.64062,-9.0625 C 8.253906,-9 7.742188,-8.878906 7.109375,-8.703125 6.472656,-8.535156 5.789062,-8.351562 5.0625,-8.15625 L 5.640625,-4.5 c 0.125,0.699219 0.273437,1.164062 0.453125,1.390625 0.1875,0.21875 0.476562,0.292969 0.875,0.21875 0.15625,-0.03125 0.460938,-0.113281 0.921875,-0.25 l 0.15625,0.125 0.0625,1.640625 c -1.242187,0.167969 -2.265625,0.324219 -3.078125,0.46875 -0.585938,0.105469 -1.292969,0.261719 -2.125,0.46875 -0.835938,0.199219 -1.453125,0.3671875 -1.859375,0.5 z m 0,0" />
          </g>
        </g>
      </g>
      <g
         id="g1763"
         fill-opacity="1"
         fill="#ffffff">
        <g
           id="g1761"
           transform="translate(223.91495,291.84994)">
          <g
             id="g1759">
            <path
               id="path1757"
               d="m 11.484375,-10.015625 c 0.25,1.34375 0.640625,2.90625 1.171875,4.6875 l -0.125,0.359375 C 9.425781,-3.820312 6.921875,-2.851562 5.015625,-2.0625 3.660156,-1.507812 2.320312,-0.863281 1,-0.125 L 0.515625,-1.828125 C 1.140625,-2.179688 1.507812,-2.550781 1.625,-2.9375 1.75,-3.332031 1.671875,-3.878906 1.390625,-4.578125 L -2.34375,-13.71875 C -2.5625,-14.25 -2.75,-14.578125 -2.90625,-14.703125 c -0.164062,-0.125 -0.410156,-0.125 -0.734375,0 -0.207031,0.09375 -0.453125,0.214844 -0.734375,0.359375 L -4.609375,-14.5 -5,-16 l 0.46875,-0.203125 c 1.148438,-0.414063 2.445312,-0.925781 3.890625,-1.53125 3.550781,-1.457031 5.941406,-2.550781 7.171875,-3.28125 l 0.28125,0.1875 c 0.125,0.636719 0.300781,1.382813 0.53125,2.234375 0.226562,0.855469 0.46875,1.632812 0.71875,2.328125 L 5.984375,-15.25 5.640625,-16.21875 C 5.441406,-16.695312 5.226562,-17.007812 5,-17.15625 c -0.21875,-0.144531 -0.546875,-0.164062 -0.984375,-0.0625 -0.429687,0.09375 -1.121094,0.339844 -2.078125,0.734375 -0.417969,0.167969 -0.699219,0.304687 -0.84375,0.40625 -0.148438,0.09375 -0.226562,0.210937 -0.234375,0.34375 -0.011719,0.125 0.03125,0.324219 0.125,0.59375 l 1.390625,3.8125 2.25,-0.890625 c 0.332031,-0.144531 0.738281,-0.335938 1.21875,-0.578125 0.488281,-0.238281 0.976562,-0.5 1.46875,-0.78125 l 0.28125,0.125 0.5,2.171875 c -0.199219,0.08594 -0.367188,0.148438 -0.5,0.1875 -1.125,0.429688 -2.015625,0.777344 -2.671875,1.046875 -0.492187,0.210937 -1.078125,0.511719 -1.765625,0.90625 L 4.5,-5.703125 c 0.1875,0.449219 0.351562,0.757813 0.5,0.921875 0.15625,0.15625 0.347656,0.226562 0.578125,0.203125 0.226563,-0.019531 0.585937,-0.128906 1.078125,-0.328125 1.050781,-0.4375 1.785156,-0.8125 2.203125,-1.125 0.425781,-0.3125 0.664063,-0.691406 0.71875,-1.140625 0.0625,-0.457031 -0.027344,-1.132813 -0.265625,-2.03125 l 1.90625,-0.96875 z m 0,0" />
          </g>
        </g>
      </g>
      <g
         id="g1771"
         fill-opacity="1"
         fill="#ffffff">
        <g
           id="g1769"
           transform="translate(244.29678,282.73844)">
          <g
             id="g1767">
            <path
               id="path1765"
               d="m 7.125,-4.78125 -0.75,-1.328125 c 0.457031,-0.375 0.785156,-0.660156 0.984375,-0.859375 0.195313,-0.195312 0.300781,-0.367188 0.3125,-0.515625 C 7.691406,-7.640625 7.640625,-7.8125 7.515625,-8 7.410156,-8.164062 7.207031,-8.390625 6.90625,-8.671875 L 5.34375,-10.03125 C 4.570312,-9.5625 3.898438,-9.132812 3.328125,-8.75 3.066406,-8.570312 2.554688,-8.175781 1.796875,-7.5625 L 1.375,-7.21875 1.9375,-5.1875 c 0.132812,0.367188 0.242188,0.609375 0.328125,0.734375 0.175781,0.261719 0.367187,0.390625 0.578125,0.390625 0.21875,0 0.515625,-0.125 0.890625,-0.375 l 0.9375,-0.625 0.1875,0.078125 L 5.59375,-3.5625 C 5.375,-3.4375 4.925781,-3.171875 4.25,-2.765625 c -0.679688,0.398437 -1.308594,0.792969 -1.890625,1.1875 -0.59375,0.398437 -1.125,0.761719 -1.59375,1.09375 -0.46875,0.335937 -0.78125,0.5625 -0.9375,0.6875 l -0.78125,-1.5 c 0.28125,-0.269531 0.464844,-0.582031 0.546875,-0.9375 0.074219,-0.363281 0.03125,-0.851563 -0.125,-1.46875 l -3.453125,-13.484375 3.0625,-2.5625 0.3125,-0.04687 c 0.769531,0.679687 2.34375,2.054687 4.71875,4.125 2.375,2.074219 4.320313,3.714844 5.84375,4.921875 0.5,0.40625 0.941406,0.636719 1.328125,0.6875 0.394531,0.05469 0.851562,-0.0625 1.375,-0.34375 l 0.171875,0.09375 0.6875,1.34375 c -0.199219,0.117188 -0.5625,0.339844 -1.09375,0.671875 -0.523437,0.335937 -1.042969,0.679687 -1.5625,1.03125 -0.773437,0.511719 -1.5,1.039063 -2.1875,1.578125 -0.6875,0.53125 -1.132813,0.871094 -1.328125,1.015625 z m -4.90625,-5.625 c 0.15625,-0.101562 0.671875,-0.484375 1.546875,-1.140625 l -4.46875,-3.9375 -0.28125,0.1875 1.65625,5.921875 z m 0,0" />
          </g>
        </g>
      </g>
      <g
         id="g1779"
         fill-opacity="1"
         fill="#ffffff">
        <g
           id="g1777"
           transform="translate(263.01493,269.30919)">
          <g
             id="g1775">
            <path
               id="path1773"
               d="M 1.0625,-3.21875 C 1.570312,-3.832031 1.898438,-4.3125 2.046875,-4.65625 2.191406,-5 2.1875,-5.332031 2.03125,-5.65625 1.882812,-5.988281 1.523438,-6.441406 0.953125,-7.015625 L -6.375,-14.34375 c -0.6875,0.730469 -1.125,1.289062 -1.3125,1.671875 -0.195312,0.375 -0.203125,0.773437 -0.015625,1.1875 0.1875,0.417969 0.632813,1.058594 1.328125,1.921875 l -1.390625,1.609375 c -0.925781,-1.09375 -2.148437,-2.460937 -3.671875,-4.109375 l -0.01563,-0.421875 2.03125,-1.59375 5.71875,-5.71875 1.625,-2.0625 0.421875,0.01563 c 1.480469,1.4375 2.800781,2.636719 3.96875,3.59375 l -1.40625,1.625 c -0.9257812,-0.738281 -1.59375,-1.207031 -2,-1.40625 C -1.5,-18.226562 -1.882812,-18.25 -2.25,-18.09375 c -0.363281,0.15625 -0.894531,0.5625 -1.59375,1.21875 0.84375,0.949219 2.023438,2.226562 3.53125,3.828125 1.5,1.59375 2.882812,3.027344 4.15625,4.296875 0.445312,0.449219 0.847656,0.695312 1.203125,0.734375 C 5.398438,-7.972656 5.757812,-8.132812 6.125,-8.5 6.425781,-8.800781 6.726562,-9.144531 7.03125,-9.53125 l 0.171875,0.015625 1.0625,1.40625 C 6.921875,-6.867188 5.84375,-5.84375 5.03125,-5.03125 c -0.625,0.625 -1.601562,1.671875 -2.921875,3.140625 z m 0,0" />
          </g>
        </g>
      </g>
      <g
         id="g1787"
         fill-opacity="1"
         fill="#ffffff">
        <g
           id="g1785"
           transform="translate(105.84016,139.8202)">
          <g
             id="g1783">
            <path
               id="path1781"
               d="M -0.421875,-2.328125 C 0.0351562,-3.171875 0.222656,-3.832031 0.140625,-4.3125 0.0546875,-4.800781 -0.34375,-5.335938 -1.0625,-5.921875 l -9.828125,-8.140625 c -0.519531,-0.425781 -0.921875,-0.65625 -1.203125,-0.6875 -0.28125,-0.03906 -0.578125,0.132812 -0.890625,0.515625 l -0.609375,0.765625 -0.3125,-0.01563 -1.3125,-1.40625 2.53125,-3 c 0.542969,-0.664063 1.523438,-1.976563 2.9375,-3.9375 l 1.5625,1.546875 c -0.300781,0.492188 -0.472656,0.882812 -0.515625,1.171875 -0.050781,0.28125 0,0.554687 0.15625,0.8125 0.15625,0.261719 0.46875,0.609375 0.9375,1.046875 l 3.53125,3.171875 2.8125,-3.28125 c 0.71875,-0.875 1.488281,-1.9375 2.3125,-3.1875 l -3.90625,-3.234375 c -0.519531,-0.425781 -0.921875,-0.65625 -1.203125,-0.6875 -0.28125,-0.03125 -0.578125,0.140625 -0.890625,0.515625 l -0.640625,0.8125 -0.296875,-0.04687 -1.296875,-1.421875 2.671875,-3.1875 c 0.46875,-0.5625 1.421875,-1.835937 2.859375,-3.828125 l 1.578125,1.484375 c -0.457031,0.710937 -0.671875,1.234375 -0.640625,1.578125 0.023438,0.34375 0.261719,0.730469 0.71875,1.15625 1.414062,1.324219 3.066406,2.8125 4.953125,4.46875 1.882813,1.65625 3.484375,3.027344 4.796875,4.109375 0.707031,0.585937 1.25,0.914063 1.625,0.984375 0.375,0.0625 0.726562,-0.109375 1.0625,-0.515625 0.15625,-0.1875 0.394531,-0.53125 0.71875,-1.03125 l 0.265625,0.03125 1.421875,1.5625 c -0.199219,0.242187 -0.359375,0.417969 -0.484375,0.53125 -1.09375,1.25 -1.976563,2.277344 -2.640625,3.078125 L 8.875,-10.640625 7.421875,-12.1875 c 0.382813,-0.507812 0.617187,-0.953125 0.703125,-1.328125 0.082031,-0.375 0,-0.75 -0.25,-1.125 -0.242188,-0.375 -0.671875,-0.816406 -1.296875,-1.328125 l -3.28125,-2.71875 -2.34375,2.765625 c -0.3125,0.375 -0.710937,0.90625 -1.1875,1.59375 -0.476563,0.6875 -0.992187,1.433594 -1.546875,2.234375 L 1.78125,-9 c 0.695312,0.585938 1.21875,0.902344 1.5625,0.953125 0.351562,0.054687 0.691406,-0.113281 1.015625,-0.5 C 4.503906,-8.722656 4.742188,-9.0625 5.078125,-9.5625 h 0.25 L 6.75,-8 c -1.074219,1.1875 -1.945312,2.183594 -2.609375,2.984375 -0.480469,0.585937 -1.042969,1.320313 -1.6875,2.203125 -0.636719,0.875 -1.105469,1.546875 -1.40625,2.015625 z m 0,0" />
          </g>
        </g>
      </g>
      <g
         id="g1795"
         fill-opacity="1"
         fill="#ffffff">
        <g
           id="g1793"
           transform="translate(124.48327,118.51149)">
          <g
             id="g1791">
            <path
               id="path1789"
               d="M 9.015625,-6.171875 8.046875,-7.875 C 8.617188,-8.351562 9.023438,-8.71875 9.265625,-8.96875 9.503906,-9.226562 9.632812,-9.453125 9.65625,-9.640625 9.6875,-9.835938 9.617188,-10.054688 9.453125,-10.296875 9.304688,-10.503906 9.050781,-10.789062 8.6875,-11.15625 l -2.015625,-1.6875 c -0.960937,0.605469 -1.804687,1.15625 -2.53125,1.65625 -0.335937,0.21875 -0.984375,0.730469 -1.953125,1.53125 L 1.640625,-9.203125 2.40625,-6.65625 c 0.164062,0.46875 0.300781,0.789062 0.40625,0.953125 0.226562,0.324219 0.476562,0.484375 0.75,0.484375 0.28125,0 0.65625,-0.160156 1.125,-0.484375 L 5.859375,-6.5 6.125,-6.40625 7.078125,-4.609375 c -0.273437,0.15625 -0.839844,0.5 -1.703125,1.03125 -0.867188,0.523437 -1.664062,1.03125 -2.390625,1.53125 -0.75,0.523437 -1.429687,1 -2.03125,1.4375 -0.59375,0.429687 -0.984375,0.71875 -1.171875,0.875 l -1.015625,-1.90625 c 0.367187,-0.351563 0.589844,-0.757813 0.671875,-1.21875 0.085938,-0.457031 0.039062,-1.078125 -0.140625,-1.859375 l -4.609375,-17.125 3.875,-3.296875 0.390625,-0.07813 c 0.9804688,0.855469 3,2.589844 6.0625,5.203125 3.0625,2.605469 5.5625,4.667969 7.5,6.1875 0.644531,0.511719 1.21875,0.796875 1.71875,0.859375 0.507813,0.0625 1.082031,-0.08594 1.71875,-0.453125 l 0.25,0.109375 0.875,1.703125 c -0.242187,0.148437 -0.695313,0.4375 -1.359375,0.875 -0.65625,0.429687 -1.324219,0.871094 -2,1.328125 -0.960938,0.65625 -1.875,1.335938 -2.75,2.03125 -0.875,0.6875 -1.429688,1.132812 -1.65625,1.328125 z M 2.6875,-13.28125 c 0.195312,-0.132812 0.847656,-0.617188 1.953125,-1.453125 l -5.75,-4.984375 -0.359375,0.234375 2.1875,7.546875 z m 0,0" />
          </g>
        </g>
      </g>
      <g
         id="g1803"
         fill-opacity="1"
         fill="#ffffff">
        <g
           id="g1801"
           transform="translate(145.06873,105.11968)">
          <g
             id="g1799">
            <path
               id="path1797"
               d="M 0.171875,-1.421875 5.125,-21.875 1.171875,-20.15625 c -0.867187,0.4375 -1.488281,0.859375 -1.875,1.265625 -0.394531,0.40625 -0.601563,0.914063 -0.625,1.515625 -0.03125,0.605469 0.089844,1.421875 0.359375,2.453125 l -2.5,1.109375 c -0.113281,-0.4375 -0.359375,-1.382812 -0.734375,-2.84375 -0.375,-1.46875 -0.757813,-2.800781 -1.15625,-4 l 0.203125,-0.421875 5.640625,-1.671875 9.0625,-3.15625 0.96875,1.0625 C 8.585938,-18.507812 6.832031,-11.695312 5.25,-4.40625 l 4.8125,-2.125 c 0.988281,-0.476562 1.628906,-1.191406 1.921875,-2.140625 0.300781,-0.957031 0.285156,-2.285156 -0.04687,-3.984375 l 2.46875,-1.140625 c 0.101562,0.480469 0.332031,1.507813 0.6875,3.078125 0.363281,1.5625 0.738281,2.984375 1.125,4.265625 l -0.3125,0.78125 -12.25,4.234375 -2.234375,1.09375 z m 0,0" />
          </g>
        </g>
      </g>
      <g
         id="g1811"
         fill-opacity="1"
         fill="#ffffff">
        <g
           id="g1809"
           transform="translate(166.96606,97.664929)">
          <g
             id="g1807">
            <path
               id="path1805"
               d="M 17.65625,-8.03125 C 17.488281,-6.289062 17.394531,-4.238281 17.375,-1.875 l -0.28125,0.390625 C 12.90625,-1.210938 9.492188,-0.945312 6.859375,-0.6875 5.023438,-0.5 3.164062,-0.203125 1.28125,0.203125 L 1.296875,-2 c 0.90625,-0.226562 1.5,-0.554688 1.78125,-0.984375 0.289063,-0.4375 0.390625,-1.132813 0.296875,-2.09375 L 2.15625,-17.59375 C 2.082031,-18.3125 1.96875,-18.78125 1.8125,-19 c -0.15625,-0.21875 -0.453125,-0.304688 -0.890625,-0.265625 -0.292969,0.03125 -0.632813,0.08594 -1.015625,0.15625 l -0.234375,-0.265625 0.0625,-1.984375 0.671875,-0.0625 c 1.5625,-0.09375 3.328125,-0.238281 5.296875,-0.4375 4.882813,-0.488281 8.195313,-0.953125 9.9375,-1.390625 l 0.3125,0.328125 c -0.105469,0.824219 -0.171875,1.804687 -0.203125,2.9375 -0.03125,1.136719 -0.02344,2.164063 0.03125,3.078125 l -2.90625,0.5 -0.07813,-1.34375 c -0.0625,-0.644531 -0.199219,-1.09375 -0.40625,-1.34375 -0.210937,-0.257812 -0.601563,-0.410156 -1.171875,-0.453125 -0.5625,-0.03906 -1.5,0 -2.8125,0.125 -0.574219,0.0625 -0.96875,0.132813 -1.1875,0.203125 -0.210938,0.0625 -0.34375,0.171875 -0.40625,0.328125 -0.0625,0.15625 -0.089844,0.417969 -0.078125,0.78125 l 0.28125,5.171875 3.09375,-0.28125 c 0.457031,-0.03906 1.023437,-0.125 1.703125,-0.25 0.6875,-0.125 1.382812,-0.265625 2.09375,-0.421875 L 14.1875,-13.625 14,-10.796875 c -0.28125,0.03125 -0.5,0.04297 -0.65625,0.03125 -1.53125,0.117187 -2.746094,0.21875 -3.640625,0.3125 C 9.023438,-10.390625 8.1875,-10.238281 7.1875,-10 l 0.390625,4.6875 c 0.0625,0.617188 0.15625,1.054688 0.28125,1.3125 0.125,0.25 0.328125,0.40625 0.609375,0.46875 0.289062,0.054688 0.78125,0.046875 1.46875,-0.015625 1.4375,-0.144531 2.46875,-0.332031 3.09375,-0.5625 0.632812,-0.226563 1.066406,-0.609375 1.296875,-1.140625 0.238281,-0.53125 0.375,-1.382812 0.40625,-2.5625 l 2.671875,-0.5 z m 0,0" />
          </g>
        </g>
      </g>
      <g
         id="g1819"
         fill-opacity="1"
         fill="#ffffff">
        <g
           id="g1817"
           transform="translate(190.62078,95.915818)">
          <g
             id="g1815">
            <path
               id="path1813"
               d="m 1.9375,-1.625 c 0.84375,-0.019531 1.441406,-0.203125 1.796875,-0.546875 0.363281,-0.34375 0.613281,-0.992187 0.75,-1.953125 L 6.28125,-16.640625 c 0.101562,-0.664063 0.09375,-1.125 -0.03125,-1.375 -0.117188,-0.257813 -0.417969,-0.425781 -0.90625,-0.5 l -1,-0.109375 -0.140625,-0.28125 0.53125,-1.859375 4.375,0.65625 c 0.613281,0.08594 1.503906,0.171875 2.671875,0.265625 1.175781,0.09375 1.953125,0.15625 2.328125,0.1875 l -0.5625,2.234375 c -0.75,-0.01953 -1.308594,0.03125 -1.671875,0.15625 -0.355469,0.117187 -0.601562,0.3125 -0.734375,0.59375 -0.136719,0.28125 -0.273437,0.734375 -0.40625,1.359375 -0.699219,3.230469 -1.382813,7.214844 -2.046875,11.953125 -0.085938,0.585937 -0.09375,1.023437 -0.03125,1.3125 0.070312,0.28125 0.242188,0.492187 0.515625,0.625 0.269531,0.136719 0.703125,0.246094 1.296875,0.328125 1.082031,0.15625 1.90625,0.15625 2.46875,0 0.570312,-0.164062 1.035156,-0.566406 1.390625,-1.203125 0.351563,-0.644531 0.71875,-1.6875 1.09375,-3.125 l 2.6875,0.078125 0.1875,0.375 c -0.125,0.398438 -0.386719,1.308594 -0.78125,2.734375 -0.386719,1.429687 -0.75,2.921875 -1.09375,4.484375 l -0.375,0.28125 C 15.453125,2.425781 14.179688,2.195312 12.234375,1.84375 10.285156,1.488281 8.519531,1.203125 6.9375,0.984375 5.738281,0.804688 4.585938,0.6875 3.484375,0.625 2.378906,0.5625 1.671875,0.53125 1.359375,0.53125 Z m 0,0" />
          </g>
        </g>
      </g>
      <g
         id="g1827"
         fill-opacity="1"
         fill="#ffffff">
        <g
           id="g1825"
           transform="translate(211.95273,99.349557)">
          <g
             id="g1823">
            <path
               id="path1821"
               d="M 4.3125,-0.390625 C 5.28125,-0.109375 6,0.03125 6.46875,0.03125 6.945312,0.0390625 7.335938,-0.128906 7.640625,-0.484375 7.941406,-0.835938 8.28125,-1.488281 8.65625,-2.4375 l 4.859375,-12.296875 c -1.199219,-0.4375 -2.074219,-0.664063 -2.625,-0.6875 -0.542969,-0.01953 -1.007813,0.183594 -1.390625,0.609375 -0.375,0.429688 -0.890625,1.265625 -1.546875,2.515625 l -2.59375,-0.8125 C 6.160156,-14.742188 7.140625,-16.875 8.296875,-19.5 l 0.484375,-0.203125 2.890625,1.53125 9.578125,3.796875 3.234375,0.875 0.21875,0.484375 C 23.765625,-10.546875 23.03125,-8.394531 22.5,-6.5625 l -2.59375,-0.796875 c 0.382812,-1.457031 0.585938,-2.472656 0.609375,-3.046875 C 20.546875,-10.988281 20.375,-11.453125 20,-11.796875 c -0.367188,-0.351563 -1.105469,-0.769531 -2.21875,-1.25 -0.699219,1.46875 -1.59375,3.492187 -2.6875,6.0625 -1.09375,2.5625 -2.0625,4.914063 -2.90625,7.046875 -0.304688,0.75 -0.390625,1.34375 -0.265625,1.78125 0.132813,0.4375 0.503906,0.773438 1.109375,1.015625 0.5,0.195313 1.054688,0.375 1.671875,0.53125 l 0.0625,0.203125 -1.09375,1.9375 C 11.535156,4.601562 9.789062,3.867188 8.4375,3.328125 7.375,2.910156 5.648438,2.300781 3.265625,1.5 Z m 0,0" />
          </g>
        </g>
      </g>
      <g
         id="g1835"
         fill-opacity="1"
         fill="#ffffff">
        <g
           id="g1833"
           transform="translate(232.89283,107.91818)">
          <g
             id="g1831">
            <path
               id="path1829"
               d="M 8.125,6.46875 C 6.570312,5.320312 5.472656,3.988281 4.828125,2.46875 4.191406,0.957031 4.03125,-0.648438 4.34375,-2.359375 c 0.3125,-1.71875 1.101562,-3.4375 2.375,-5.15625 1.351562,-1.84375 2.90625,-3.191406 4.65625,-4.046875 1.757812,-0.863281 3.585938,-1.195312 5.484375,-1 1.894531,0.1875 3.703125,0.914062 5.421875,2.171875 1.59375,1.179687 2.722656,2.527344 3.390625,4.046875 0.675781,1.511719 0.859375,3.117188 0.546875,4.8125 C 25.914062,0.164062 25.128906,1.875 23.859375,3.59375 22.503906,5.4375 20.929688,6.796875 19.140625,7.671875 17.359375,8.554688 15.507812,8.894531 13.59375,8.6875 11.6875,8.488281 9.863281,7.75 8.125,6.46875 Z m 2.359375,-1.734375 c 1.269531,0.9375 2.632813,1.171875 4.09375,0.703125 C 16.035156,4.96875 17.4375,3.820312 18.78125,2 c 1.707031,-2.320312 2.632812,-4.378906 2.78125,-6.171875 0.144531,-1.800781 -0.480469,-3.21875 -1.875,-4.25 -1.261719,-0.925781 -2.609375,-1.144531 -4.046875,-0.65625 -1.4375,0.492187 -2.835937,1.648437 -4.1875,3.46875 -1.699219,2.3125 -2.625,4.367187 -2.78125,6.15625 -0.15625,1.789063 0.445313,3.1875 1.8125,4.1875 z m 0,0" />
          </g>
        </g>
      </g>
      <g
         id="g1843"
         fill-opacity="1"
         fill="#ffffff">
        <g
           id="g1841"
           transform="translate(253.54022,123.62195)">
          <g
             id="g1839">
            <path
               id="path1837"
               d="m 9.84375,14.375 c 1.414062,-3.804688 2.753906,-7.5625 4.015625,-11.28125 1.269531,-3.71875 1.882813,-5.5625 1.84375,-5.53125 L 15.515625,-2.671875 7.234375,3.625 c -0.449219,0.34375 -0.710937,0.640625 -0.78125,0.890625 -0.0625,0.25 0.03125,0.539063 0.28125,0.875 l 0.9375,1.125 -0.0625,0.25 -1.828125,1 C 5.59375,7.503906 5.257812,7.03125 4.78125,6.34375 4.300781,5.664062 3.804688,4.992188 3.296875,4.328125 2.859375,3.753906 2.351562,3.15625 1.78125,2.53125 1.21875,1.914062 0.851562,1.519531 0.6875,1.34375 l 1.875,-1.140625 c 0.476562,0.488281 0.9375,0.757813 1.375,0.8125 0.445312,0.050781 0.941406,-0.117187 1.484375,-0.5 L 16.078125,-7.125 c 0.5625,-0.425781 0.847656,-0.863281 0.859375,-1.3125 0.0078,-0.457031 -0.273438,-1.144531 -0.84375,-2.0625 l 0.09375,-0.375 1.640625,-0.953125 c 0.125,0.210937 0.410156,0.640625 0.859375,1.296875 0.445312,0.648438 0.878906,1.246094 1.296875,1.796875 0.34375,0.449219 0.722656,0.921875 1.140625,1.421875 0.425781,0.5 0.707031,0.820312 0.84375,0.953125 -1.25,3.230469 -2.484375,6.613281 -3.703125,10.15625 -1.21875,3.550781 -1.8125,5.3125 -1.78125,5.28125 L 16.6875,9.34375 24.640625,3.171875 c 0.382813,-0.3125 0.617187,-0.605469 0.703125,-0.875 C 25.42578,2.035156 25.35155,1.757812 25.125,1.46875 L 24.390625,0.5625 24.5,0.34375 l 1.765625,-1.0625 c 0.175781,0.273438 0.5,0.7382812 0.96875,1.40625 0.476563,0.675781 0.972656,1.34375 1.484375,2 0.394531,0.53125 0.859375,1.109375 1.390625,1.734375 0.53125,0.632813 0.890625,1.050781 1.078125,1.25 L 29.34375,6.875 C 28.8125,6.332031 28.328125,6.03125 27.890625,5.96875 27.453125,5.90625 26.96875,6.0625 26.4375,6.4375 L 12.203125,16.75 Z m 0,0" />
          </g>
        </g>
      </g>
      <g
         id="g1847"
         clip-path="url(#ae2d3378d1)">
        <path
           id="path1845"
           fill-rule="evenodd"
           fill-opacity="1"
           d="m 187.5,183.95703 2.05859,6.35156 h 6.67578 l -5.40234,3.92578 2.06641,6.34766 -5.39844,-3.92578 -5.40234,3.92578 2.0625,-6.34766 -5.40235,-3.92578 h 6.67969 m 2.02344,71.6836 c -1.61719,3.34375 -4.52735,1.53515 -5.70313,-1.05469 -0.69531,-1.53125 -2.0664,-2.70703 -3.57031,-3.5625 -1.23828,-0.70313 -2.75,-1.41016 -2.61328,-2.70703 -0.20703,-4.17578 1.66015,-6.83594 -0.875,-10.26563 -3.89844,-5.26562 -0.92578,-9.86718 -4.125,-15.82422 -0.66406,-1.23828 -5.25,-5.6289 -6.375,-6.80859 -4.04688,-4.21094 -0.50781,-8.69531 0.48828,-10.98437 0.76172,-1.7461 1.39453,-0.41797 1.19141,1.16406 -0.20313,1.57422 0.65234,4.80469 1.96875,6.38672 2.64843,3.1875 11.13671,9.14062 6.39843,-1.125 -2.375,-5.16016 -8.52343,-8.22657 -12.40234,-10.57422 -2.72266,-1.65235 -3.85156,-4.75781 -2.42969,-6.15235 2.81641,-2.77734 4.19531,-5.44531 -6.47265,-7.875 -7.64844,-1.74609 -13.6836,-2.58984 -18.58594,-3.92968 -19.40625,-5.32813 -32.21875,-31.38282 -56.226564,-36.67578 -2.308594,-0.42188 -1.363281,-0.71094 -0.238281,-0.77344 21.496094,-1.19922 39.207035,17.73437 54.058595,21.50781 6.87109,1.74609 8.62109,1.91797 15.33984,2.42578 11.75,0.8711 21.33594,-3.6289 33.37891,-0.83594 2.79687,0.64844 5.40625,1.25391 6.79297,1.35938 1.38672,-0.10547 4.0664,-0.71094 6.86328,-1.35938 12.04297,-2.79296 21.6289,1.70704 33.3789,0.83594 6.71875,-0.50781 8.46875,-0.67969 15.33985,-2.42578 14.85547,-3.77344 32.5625,-22.70703 54.05859,-21.50781 1.125,0.0625 2.07031,0.35156 -0.23828,0.77344 -24.00781,5.28906 -36.82031,31.34765 -56.22656,36.67578 -4.90235,1.33984 -10.9375,2.18359 -18.58594,3.92968 -10.66797,2.42969 -9.28906,5.09766 -6.47266,7.875 1.42188,1.39454 0.29297,4.5 -2.42968,6.15235 -3.875,2.34765 -10.02735,5.41406 -12.40235,10.57422 -4.73828,10.26562 3.75,4.3125 6.39844,1.125 1.31641,-1.58203 2.17188,-4.8125 1.96875,-6.38672 -0.20312,-1.58203 0.43359,-2.91016 1.19141,-1.16406 0.99609,2.28906 4.53515,6.77343 0.48828,10.98437 -1.125,1.17969 -5.71094,5.57031 -6.375,6.80859 -3.19922,5.95704 -0.22656,10.5586 -4.125,15.82422 -2.53516,3.42969 -0.66797,6.08985 -0.875,10.26563 0.13672,1.30078 -1.375,2.0039 -2.61328,2.70703 -1.50391,0.85547 -2.875,2.03125 -3.57032,3.5625 -1.17187,2.58984 -4.15234,4.39844 -5.77343,1.05469 z m 0,0"
           fill="#ffffff" />
      </g>
      <g
         id="g1851"
         clip-path="url(#75e0b82593)">
        <path
           id="path1849"
           fill-rule="evenodd"
           fill-opacity="1"
           d="m 192.62891,169.50391 c -1.5625,0 -2.84766,-0.35157 -3.52735,-1.16797 -0.5664,-0.67969 -0.52734,-1.52344 -0.86719,-2.44141 -0.34375,-0.92187 -1.0625,-0.95312 -1.77343,-2.62891 -0.32032,-0.76171 -0.55078,-1.72265 -1.51563,-2.20312 -0.48047,0 -0.96094,0 -1.44531,0 -0.62109,0 -0.76172,0.58594 -0.96484,0.99609 -0.13672,0.27735 -0.51954,0.79297 -0.82813,0.79297 -0.44531,0 -1.75391,-0.99609 -2.10156,-1.34375 -0.6875,-0.6875 -0.37891,-1.375 -0.72266,-2.0664 -0.51953,-1.03125 -3.23828,-2.10157 -3.23828,-3.23829 h 6.54688 v -9.78515 h 5.30468 v 4.20703 c 0.92969,-0.004 1.92969,1.03125 2.9961,1.03125 1.3125,0 2.75781,1.27344 4.20703,0.30859 0.96094,-0.65625 2.41015,0.79297 3.61328,0.79297 v 3.41016 c 0.29297,0.28906 0.79687,0.86328 0.98828,1.64844 0.14844,0.60546 -0.0781,1.07812 -0.26172,1.45312 -0.25781,0.52734 0.3125,1.33984 -1.96484,2.71875 -1.29688,0.78906 -3.14063,1.44531 -3.96094,2.82813 -0.59375,0.99609 -0.76172,1.17187 -0.76172,2.33984 0,0.83203 0.31641,1.55469 0.27735,2.34766"
           fill="#ffffff" />
      </g>
      <g
         id="g1855"
         clip-path="url(#c2497c8454)">
        <path
           id="path1853"
           fill-rule="evenodd"
           fill-opacity="1"
           d="m 255.46875,240.51562 c -0.90234,0.85547 -0.0937,0.66797 -1.27734,0.23047 1.20312,-1.03906 0.19921,-0.65625 1.27734,-0.23047 M 146.25,116.26172 c -0.80859,0.59375 -0.46094,0.58203 -1.78906,-0.125 1.73437,-1.46484 1.07031,-0.39063 1.78906,0.125 z m -30.84375,27.24219 -1.78125,0.9414 c -0.0117,-1.28125 0.49219,-1.86719 1.78125,-0.9414 z m -10.89062,45.51953 c -1.59375,0.47265 -0.74219,-0.13672 -0.89844,0.88672 z m -2.10157,1.17968 c 0.33203,1.83204 -0.16406,0.8711 0.8711,0.94141 z m 5.71485,-35.5664 c 0.83593,-1.83594 1.72265,-2.92969 3.96875,-7.57813 1.21484,-2.5039 4.4414,-2.95703 5.41015,-3.6289 -1.10156,-0.36328 0.41016,0.16406 -0.76562,-0.10547 -0.92969,-0.21094 -0.38281,-0.0312 -1.0586,-0.39453 l 1.07813,-1.11328 -1.60938,-0.19141 c 0.78907,-1.35547 0.78516,-1.62891 1.73829,-2.83984 1.97656,-2.5 4.08593,-5.81641 6.33203,-8.26172 2.89062,-3.14453 6.42968,-7.59375 10.1875,-9.51953 0.91015,1.24609 0.0977,0.14843 0.4414,1.13281 l 1.53125,-1.19141 c -1.4414,-0.26953 0.0781,0.24219 -1.26562,-0.0312 1.6289,-3.14453 4.0664,-3.1875 7.90234,-3.67578 1.88281,-0.23437 0.61328,-1.23437 2.24609,-0.24609 -0.27343,0.58984 -12.80468,9.72265 -16.73437,14.76172 -2.07812,2.66796 -3.16797,2.72265 -6.84375,8.25781 -1.01953,1.52734 -2.42578,3.03906 -3.05859,4.55859 -0.72657,1.73828 -1.76563,3.5 -3.57813,4.16406 l 0.84766,0.7461 c -1.10547,1.85937 -1.96094,3.84375 -2.96875,5.57031 l -0.50391,1.48828 z m 15.7539,84.85547 c 0.12891,2.74609 1.24219,-0.64844 1.375,4.05468 l 2.28516,-0.43359 -0.39063,2.13281 c 1.1875,-1.09375 0.34375,-0.48828 1.33203,-0.68359 1.06641,2.29687 3.15625,3.05078 4.8711,4.94922 l -0.92578,1.11719 c 4.67187,-0.22657 6.10937,3.14453 9.52343,5.55859 3.1875,2.25391 7.06641,3.66016 9.82422,5.60547 l -2.18359,0.94922 c 1.46094,0.0976 2.5,-0.44532 3.75,-0.17188 1.02734,0.22656 1.19531,0.75 2.75781,1.09375 1.90235,0.42188 4.26563,0.60156 5.53906,2.16016 -1.01953,0.92578 -0.28125,0.57422 -1.875,0.44922 l 2.85157,2.70312 c -0.53516,0.63672 -0.51953,0.44141 -1.21485,0.57031 l 0.20313,-0.7539 c -2.06641,-0.26172 -0.72656,0.62109 -2.62891,-0.10938 -1.99609,-0.76562 -3.13281,-0.71875 -5.05859,-1.87109 -1.60547,-0.96094 -0.94141,-0.39844 -2.47656,-0.98828 -0.96485,-0.3711 -1.51172,-0.98438 -2.125,-1.41016 -0.85157,-0.59375 -0.46875,0.20703 -2.03907,-0.66797 -5.85937,-3.28125 -7.96484,-5.05078 -12.98047,-8.67968 -1.44531,-1.03907 -2.72265,-2.14844 -4.00781,-3.34766 -2.1875,-2.03125 -1.32422,-2.16797 -4.08203,-3.25781 l -0.46484,-1.99219 1.17578,-0.35156 -0.98438,-1.3711 c -1.64453,1.29297 -0.0977,0.85938 -2.10546,1.13282 l -1.44532,-2.25391 1.57032,0.26172 c -0.12891,-0.42578 -1.16407,-2.09766 -1.39844,-2.48047 -0.90235,0.75 -0.58203,0.28125 -0.69141,1.29687 l -1.22265,-1.08984 c 0.5625,-1.75781 1.33984,-1 0.57031,-2.71875 -1.32031,0.51563 0.29297,0.74609 -1.60938,0.59766 1.32813,1.25781 0.95313,0.45703 0.60157,1.46093 -1.1875,-1.20312 -0.84766,-1.17187 -0.90625,-2.6914 -3.57032,-1.26172 -2.92969,-2.85938 -6.21094,-7.86328 -8.32813,-12.69922 -2.97266,-5.73828 -6.44141,-14.53516 -1.02734,-2.60156 -3.58984,-8.45312 -3.42187,-11 0.11718,-1.86719 -0.71094,-3.75 -0.90625,-5.88281 l 1.42968,-1.03906 c -1.14453,-1.23047 -0.23046,-0.42969 -1.71875,-0.87891 0.16797,-1.62109 -0.24609,-1.17188 0.56641,-2.47266 -1.44922,-0.95312 -0.97266,-2.85937 -1,-7.00781 -0.0859,-10.74219 0.63672,-6.85547 1.36328,-14.74219 l 3.29688,3.05078 c -0.10547,0.65625 -0.25391,1.51563 -0.42578,2.67969 -0.89063,6.09766 -0.24219,10.66406 -0.25782,15.98828 -0.0117,2.15235 -0.34375,1.00391 -1.14843,2.75391 L 105.5,196.79297 c -0.25781,3.10547 -0.16016,-0.19141 0.65234,3.03515 0.39063,1.54297 0.62891,3.30469 0.83204,4.85547 -0.79688,1.29688 -0.48047,0.12891 0.23828,1.65625 0.17578,0.3711 0.875,2.26953 0.98437,2.71094 0.54688,2.19141 0.58985,3.44531 1.82031,5.51563 l -0.84765,1.14843 c 1.88281,0.5625 2.57031,3.55469 3.13281,5.2461 0.37109,1.09765 2.05469,4.07031 2.83203,5.46093 0.47656,0.85938 0.92578,2.27344 1.12891,2.64454 0.1875,0.32812 1.33984,1.28515 1.89453,2.11328 0.86328,1.30078 0.87109,2.19922 1.375,3.08984 0.30859,0.53516 1.30078,1.33594 1.92578,2.31641 l -1.85547,1.08984 c 1.71875,1.71484 1.38281,0.11719 2.37891,0.94922 1.65234,1.37891 1.02344,1.34766 0.86328,2.12109 z m 139.63281,-82.92188 c -3.63281,-10.0625 -5.23437,-10.80469 -12.86718,-22.14062 -1.4336,-2.125 -6.41407,-3.84766 -5.98828,-6.8125 -3.77735,-0.42969 -1.82813,-1.83203 -4.37891,-3.02344 l -9.90625,-7.08203 c -1.41016,-0.86719 -1.17578,-1.23828 -1.75781,-1.60938 -0.46094,-0.29296 -1.95703,-0.53125 -2.8086,-0.90625 -3.2539,-1.41796 -7.54687,-4.21093 -10.92968,-5.01953 -1.8086,-0.42968 -10.96094,-2.55859 -11.65235,-3.48437 2.41406,0.043 1.13672,0.40625 4.04297,-0.24219 l -0.53125,-1.35156 c -0.94531,1.70703 -0.82422,0.83984 -2.75781,0.42969 -3.19141,2.53515 -13.95313,-1.16797 -23.11328,0.47265 -2.4336,0.4336 -6.01563,1.53516 -7.99219,0.28125 -0.76172,1.40235 -2.20703,1.15235 -4.16016,1.50391 -1.96484,0.35156 -2.49218,0.86328 -4.32812,1.21875 -6.0586,1.16797 -7.67188,4.15234 -10,2.14453 -0.16797,0.83594 -0.42578,-0.375 0.14844,1.21484 l -3.71485,1.98828 c -1.40625,1.02735 -3.125,0.6836 -4.58594,-0.0703 -2.32421,2.0586 -0.92187,0.42188 -3.2539,1.29297 -1.80469,0.67578 -1.86719,1.76172 -3.26172,1.09766 l 2.83203,-2.07032 c 0.98828,-0.6875 2.04297,-1.14453 3.07031,-1.74218 5.51172,-3.22266 15.71875,-7.60547 21.55469,-8.95313 10.09766,-2.33594 22.18359,-2.60937 32.45313,-1.13281 3.12109,0.44531 7.80078,0.80469 10.40234,2.22656 1.25391,0.6875 1.90234,0.39063 3.32422,0.78125 1.72265,0.47656 4.70703,1.69141 6.41797,2.40625 1.00781,0.42188 4.57031,2.61328 4.64453,2.6211 3.71875,0.57421 13.53125,6.95703 16.875,9.93359 1.85937,1.65234 3.48047,2.03516 3.51172,4.21875 6.78906,2.96484 12.96484,13.1875 16.96875,19.48047 1.91015,3.00781 3.65234,6.57812 5.17578,10.34375 z m -44.5039,109.13672 c 1.16406,0.89844 0.79687,-0.51172 1.58594,0.97656 -1.24219,2.57813 -11.3086,4.00782 -14.36719,5.06641 -3.00391,1.03516 -5.63281,0.67578 -8.39844,1.18359 -5.4375,1 -17.41406,0.96485 -22.42187,-0.12109 -0.66797,-0.14844 -1.48438,-0.55859 -1.54688,-0.57422 -0.96484,-0.21875 -6.39844,-0.4375 -10.70312,-2.17969 l 1.39062,-1.60937 c -1.70703,-0.53516 -2.17578,0.2539 -2.75391,-1.84766 3.23438,0.26563 3.39844,-0.1289 6.60547,1.1211 l 9.6875,1.73828 c 5.48438,-0.45703 4.51172,0.5 10.22657,0.46875 7.52734,-0.0391 15.71484,-1.11719 22.57421,-3.38282 7.39454,-2.45312 3.72657,-0.83984 6.36329,-0.68359 0.46875,-0.82031 0.0195,-0.72266 -0.38672,-0.99219 7.63281,-3.58203 8.88672,-4.32812 15.92187,-8.6289 l 1.00391,0.75 c 0.3125,-2.40625 1.80078,-1.88282 3.71094,-3.97657 l 6.65234,-5.58203 c 1.54297,-1.0664 0.94531,-1.1875 1.79297,-1.9375 2.64844,-2.33984 2.01172,-0.52734 3.70703,-1.22656 l -0.76953,-1.69531 c 0.67578,-0.85547 1.93359,-2.10938 2.67578,-2.98438 1.18359,-1.39843 1.52344,-2.625 2.92187,-4.32422 0.84375,-1.02343 0.95313,-1.03515 1.83594,-1.88671 0.90235,-0.875 0.16016,-0.69141 0.71875,-1.92969 0.89063,-1.99219 1.88672,-2.58203 3.8125,-3.22656 l -1.15234,-0.8711 c 0.40625,-1.0625 1.36719,-2.92578 1.91797,-4.01562 1.15234,-2.28907 -0.0586,-1.91797 2.26172,-3.1836 -0.74219,-1.51953 0.68359,-3.57812 1.3125,-5.23047 1.30468,-3.42968 3.32421,-12.21484 3.79687,-15.64843 1.14844,-8.28125 1.22656,-15.84375 -0.043,-23.57422 l 3.29688,-3.05078 c 0.004,0.0234 0.0117,0.043 0.0117,0.0625 1.80468,9.95703 1.38281,19.53515 0,29.53125 -1.60157,11.55859 -3.66797,12.51562 -5.70704,18.88672 -0.92578,2.89453 -0.64062,3.42187 -3.02343,5.32421 0.1289,3.41016 -4.71094,9.03516 -6.13282,9.87891 l 0.45313,1.19141 c -1.19141,1.1914 -1.01563,1.21093 -2.71484,1.09375 -1.5,2.33984 -0.32032,0.35156 -2.05079,1.36328 0.82032,1.42187 1.23047,0.76953 1.03125,2.1875 -0.83593,0.39062 -0.34375,-0.008 -1.36718,-0.625 -2.82422,0.76562 -1.48438,1.2539 -1.25391,3.57031 l -3.91406,4.31641 c -2.78125,2.01172 -4.98047,6.40234 -9.10938,6.41406 -0.88281,3.18359 -2.84375,2.77344 -5.23437,4.40234 -1.95313,1.32813 -4.04297,3.53125 -6.54688,3.13282 l -2.46484,2.10937 -2.38281,-1.80469 c -1.0586,0.65235 -0.6211,0.26953 -1.10938,1.53516 -1.19531,-0.25391 -1.17578,-0.64063 -1.71484,0.48828 z m -9.14453,-160.16406 c -0.0273,-0.84375 -0.42969,-0.66016 -0.65625,0.0859 -0.31641,1.02343 0.66015,0.0508 0.65625,-0.0859 z m -3.14453,0.98437 -0.0977,0.14063 c -0.0117,-0.0547 0.14844,-0.10938 0.0977,-0.14063 z m 14.29687,3.23047 c -0.0234,0.008 -0.11328,0.0664 -0.13672,0.0781 l -1.72265,0.97656 c 3.70312,-0.57422 0.25781,0.75781 2.55468,-0.21484 0.16407,-1.03125 0.32813,-0.31641 -0.30859,-0.91407 -1.19531,-0.17968 0.66406,-0.35937 -0.38672,0.0742 z m 23.31641,14.44532 -1.84766,0.76953 z m 13.125,111.40234 -2.33594,0.50781 0.625,0.9375 z m -3.75,3.6914 -0.14453,-0.10156 c -0.0312,0.0508 0.13281,0.0898 0.14453,0.10156 z m -1.27735,0.51954 c 0.0469,0.0312 0.0937,-0.13282 0.0977,-0.14063 z m -0.73047,0.54687 c -0.0469,-0.0312 -0.0937,0.13281 -0.0977,0.14063 z m -0.47656,4.24219 c 0.0547,-0.0859 -0.23047,-0.5586 -0.66797,-0.46485 -0.61328,0.12891 0.61719,0.53125 0.66797,0.46485 z m -3.52734,1.53906 c -0.90625,0.46875 -0.4375,-0.53906 -0.80078,1.31641 z m -14.82813,11.74219 c -0.1289,-0.73047 -0.53906,-0.76563 -0.61718,0.11328 -0.082,0.91797 0.70312,0.36719 0.61718,-0.11328 z m -5.72265,3.18359 c -0.82032,0.47266 -0.80469,-0.61328 -0.35547,1.24219 z m -2.67578,3.35547 c 1.375,-0.94141 0.043,-0.84766 1.76953,-1.45703 l -1.09766,-1.12109 c -0.45312,0.45703 -0.625,0.88671 -1.08984,1.16015 -1.08985,0.64844 -0.28907,0.0977 -0.80078,0.26172 -1.26172,0.39844 0.46484,-0.48047 -0.67188,0.25781 z m -5.51172,1.86328 c -1.80078,0.39453 -0.83594,-0.0351 -0.90625,0.88672 z m 0.99609,0.51953 c 0.95703,-0.1914 0.004,-0.17968 0.004,-0.17968 -0.0469,-0.23047 -0.69922,0.3125 -0.004,0.17968 z m 0,0"
           fill="#ffffff" />
      </g>
    </g>
  </g>
</svg>
